#N canvas 997 150 570 555 10;
#X obj 267 5 loadbang;
#X obj 234 148 line~;
#X obj 187 91 del 250;
#X obj 121 49 t b b b b b;
#X obj 416 182 tabwrite~ t1;
#X obj 63 281 tabread~ t1;
#X obj 78 250 line~;
#X msg 25 122 stop;
#X msg 409 103 open DspTableWrite.golden.wav \, start;
#X obj 330 11 bng 15 250 50 0 empty empty empty 17 7 0 10 -262144 -1
-1;
#X obj 78 131 del 1000;
#X msg 187 117 2 750;
#X obj 49 88 del 2000;
#X obj 415 207 table t1 44100;
#X msg 47 164 44100 1000;
#X msg 268 102 0 \, 1 1000;
#X obj 65 333 dac~;
#X msg 140 129 0;
#X connect 0 0 3 0;
#X connect 0 0 4 0;
#X connect 1 0 4 0;
#X connect 2 0 11 0;
#X connect 3 1 12 0;
#X connect 3 2 10 0;
#X connect 3 3 2 0;
#X connect 3 4 15 0;
#X connect 3 4 17 0;
#X connect 5 0 16 0;
#X connect 6 0 5 0;
#X connect 9 0 3 0;
#X connect 9 0 4 0;
#X connect 9 0 8 0;
#X connect 10 0 14 0;
#X connect 11 0 1 0;
#X connect 12 0 7 0;
#X connect 14 0 6 0;
#X connect 15 0 1 0;
#X connect 17 0 6 0;
